# xmcd
#
# Track frame offsets:
#	150
#	17959
#	39805
#	57194
#	77022
#	94845
#	127794
#
# Disc length: 3781 seconds
#
# Revision: 0
# Processed by: cddbd v1.5.2PL0 Copyright (c) Steve Scherf et al.
# Submitted via: EasyCDDAExtractor 11.1.0.1
#
DISCID=480ec307
DTITLE=sg 워너비 - Wanna Be+ [Music 2.0 Special Edition] [CD1]
DYEAR=2007
DGENRE=Ballad
TTITLE0=Timeless (Acoustic 2007 Real-session)
TTITLE1=죽을 만큼 사랑했어요 (Acoustic 2007 Real-session)
TTITLE2=사랑하길 정말 잘했어요 (Acoustic 2007 Replay edition)
TTITLE3=어린 사랑 (Acoustic 2007 Replay edition)
TTITLE4=Timeless (Unplugged 2007 Real-session)
TTITLE5=죽을 만큼 사랑했어요 (Unplugged 2007 Real-session)
TTITLE6=Music 2.0 Track
EXTD=
EXTT0=
EXTT1=
EXTT2=
EXTT3=
EXTT4=
EXTT5=
EXTT6=
PLAYORDER=
